<svg>
 <path
       id="icon"
       style="fill:#5600ac;fill-opacity:1;stroke:none;stroke-width:5.76794;stroke-linecap:round"
       d="m 128.24179,475.19992 c -11.40599,0.0647 -21.47172,9.79881 -21.81418,21.23593 -0.0676,29.97663 -0.01,59.95471 -0.0289,89.93198 -1.19726,12.17792 8.91027,24.00692 21.23177,24.27396 29.97665,0.0676 59.95473,0.01 89.93198,0.0289 12.17793,1.19727 24.00693,-8.91029 24.27397,-21.23178 0.0676,-29.97665 0.01,-59.95474 0.0289,-89.93198 1.19726,-12.17792 -8.91028,-24.00694 -21.23178,-24.27398 -30.61525,-0.0675 -61.23177,-0.01 -91.84762,-0.0289 -0.18169,-0.004 -0.36311,-0.005 -0.54415,-0.004 z m 36.50681,20.86644 h 18.76681 v 10.18439 c 5.79783,1.37316 10.68022,3.81434 14.64717,7.32359 4.65352,3.96693 7.09473,8.6587 7.32358,14.07509 h -18.53788 c -0.534,-2.82262 -2.0595,-5.03475 -4.57698,-6.6368 -2.4412,-1.67831 -5.1878,-2.51767 -8.23929,-2.51767 -3.12779,0 -5.9123,0.83936 -8.3535,2.51767 -2.82262,1.90719 -4.23385,4.3484 -4.23385,7.32358 0,2.44118 1.56392,4.46273 4.69171,6.06475 2.59376,1.29689 5.22558,1.94512 7.89564,1.94512 7.62872,0 14.49471,1.90722 20.59771,5.72161 7.17099,4.50093 10.75644,10.29854 10.75644,17.39323 0,5.03497 -2.47963,9.4982 -7.4383,13.38887 -4.04322,3.20405 -8.88719,5.49257 -14.53245,6.86573 v 10.18439 H 164.7486 v -10.18439 c -5.79783,-1.37316 -10.68024,-3.77645 -14.64717,-7.2094 -4.65354,-4.0432 -7.09472,-8.77289 -7.32358,-14.18931 h 18.53789 c 0.53402,2.82263 2.09793,5.0732 4.6917,6.75153 2.36489,1.60203 5.07306,2.40295 8.12457,2.40295 3.12776,0 5.91229,-0.83934 8.35349,-2.51767 2.82262,-1.90717 4.23385,-4.34837 4.23385,-7.32359 0,-2.4412 -1.56393,-4.4627 -4.6917,-6.06475 -2.59378,-1.29686 -5.2256,-1.94509 -7.89564,-1.94509 -7.62874,0 -14.49474,-1.90724 -20.59771,-5.72161 -7.17101,-4.50096 -10.75645,-10.29906 -10.75645,-17.39376 0,-5.03497 2.47963,-9.4977 7.4383,-13.38834 4.04324,-3.20408 8.88721,-5.49257 14.53245,-6.86573 z"
       inkscape:export-xdpi="12.16"
       inkscape:export-ydpi="12.16" />
</svg>